# xmcd
#
# Track frame offsets:
#  150
#  19828
#  40981
#  52906
#  67507
#  88588
#  107225
#  126974
#  141824
#  160644
#
# Disc length: 2419 seconds
#
# Revision: 0
# Processed by: cddbd v1.5.1PL2 Copyright (c) Steve Scherf et al.
# Submitted via: Collectorz.com_Music_Collector 6.9
#
DISCID=7909710a
DTITLE=Flod - Flod
DYEAR=2006
DGENRE=
TTITLE0=Menuett
TTITLE1=Sång/Sparvens polska
TTITLE2=Livsglädje
TTITLE3=Havumetsän haltija
TTITLE4=Vals efter Ola Lans/Fyrskär
TTITLE5=Arkadas
TTITLE6=Polska efter J. E. Taklax
TTITLE7=Dansstuga polskor
TTITLE8=Vals och polska efter Viktor Andersson
TTITLE9=Karlebynejdens Brudmarsch
EXTD=
EXTT0=
EXTT1=
EXTT2=
EXTT3=
EXTT4=
EXTT5=
EXTT6=
EXTT7=
EXTT8=
EXTT9=
PLAYORDER=
